<?xml version="1.0" encoding="UTF-8"?>
<svg width="36px" height="36px" viewBox="0 0 36 36" version="1.1" xmlns="http://www.w3.org/2000/svg" xmlns:xlink="http://www.w3.org/1999/xlink">
    <!-- Generator: Sketch 50.2 (55047) - http://www.bohemiancoding.com/sketch -->
    <title>Group 2</title>
    <desc>Created with Sketch.</desc>
    <defs>
        <path d="M18,3 C9.7125,3 3,9.7125 3,18 C3,26.2875 9.7125,33 18,33 C26.2875,33 33,26.2875 33,18 C33,9.7125 26.2875,3 18,3 Z M25.5,19.5 L19.5,19.5 L19.5,25.5 L16.5,25.5 L16.5,19.5 L10.5,19.5 L10.5,16.5 L16.5,16.5 L16.5,10.5 L19.5,10.5 L19.5,16.5 L25.5,16.5 L25.5,19.5 Z" id="path-1"></path>
    </defs>
    <g id="Symbols" stroke="none" stroke-width="1" fill="none" fill-rule="evenodd">
        <g id="Item-Image---3col" transform="translate(-144.000000, -173.000000)">
            <g id="Group-2" transform="translate(144.000000, 173.000000)">
                <circle id="Oval-2" fill="#FFFFFF" cx="18" cy="18" r="18"></circle>
                <g id="Content/48dp/add">
                    <mask id="mask-2" fill="white">
                        <use xlink:href="#path-1"></use>
                    </mask>
                    <use id="Mask" fill="#444444" fill-rule="nonzero" xlink:href="#path-1"></use>
                    <g id="NUI/blue/blue---darken-10%" mask="url(#mask-2)"></g>
                </g>
            </g>
        </g>
    </g>
</svg>