<?xml version="1.0" encoding="utf-8"?>
<!-- Generator: Adobe Illustrator 22.1.0, SVG Export Plug-In . SVG Version: 6.00 Build 0)  -->
<svg version="1.1" id="Layer_1" xmlns="http://www.w3.org/2000/svg" xmlns:xlink="http://www.w3.org/1999/xlink" x="0px" y="0px"
	 viewBox="0 0 1224 792" style="enable-background:new 0 0 1224 792;" xml:space="preserve">
<style type="text/css">
	.st0{fill:#9AB6D3;}
</style>
<g>
	<path class="st0" d="M143.5,158.6c10.1,13.6,27.5,34.7,52.3,63.2l80.5,93.4l77.5,89.6c1.7-30.4,2.5-69.8,2.5-118.3
		c0-36.4-0.8-60.8-2.3-73.2c-1.5-12.3-7.1-22.7-16.7-31.1c-9.6-8.4-21.7-12.6-36.1-12.6c-6.7,0-10.1-1.4-10.1-4.3
		c0-1.7,0.7-2.9,2.1-3.7c1.4-0.8,12.7-1.5,33.8-2.3c21.1-0.7,38.9-1.1,53.3-1.1l34,0.2h5.5c5.2,0,7.8,1.5,7.8,4.4
		c0,2.6-2.3,4.2-6.8,4.7c-16.9,1.9-29.1,6.3-36.6,13.2c-7.5,7-11.9,17-13.3,30.1c-1.4,13.1-2.1,57.2-2.1,132.3l-2.5,133
		c0,6.7-1.6,10.1-4.9,10.1c-0.9,0-2-0.4-3.5-1.1c-1.5-0.8-9-9.2-22.6-25.4c-13.6-16.2-30.3-35.6-50.2-58.3
		c-19.9-22.7-35.5-41-46.9-55.1c-25-30.4-40.8-49.1-47.3-56.2c-24.3-25.8-38.7-42.5-43-49.8c-2.9-5-5.5-7.6-7.8-7.6
		c-1.8,0-2.8,3.3-2.8,9.8l0.5,39c0,49.5,1.3,89,4,118.6c2.7,29.5,5.5,46.9,8.4,52c2.9,5.1,8.1,10.3,15.4,15.5
		c7.3,5.2,15.1,7.8,23.3,7.8c11.1,0,16.6,2,16.6,6.1c0,3-3.1,4.5-9.3,4.5l-121-0.2c-5.7,0-8.6-1.4-8.6-4.3c0-3.4,2.8-5,8.3-5
		c20.6,0,34.4-4.6,41.3-13.7c6.9-9.1,10.3-28.6,10.3-58.3l-2.1-88.4c0-52.2-1.4-83-4.2-92.3c-2.8-9.3-9.3-20.6-19.3-34
		c-10-13.3-21.3-20.8-34.1-22.5c-5.7-0.7-8.6-2.2-8.6-4.5c0-3.2,3.7-4.8,11.1-4.8L143.5,158.6z M429.8,266.3
		c0-17.2,6.2-32.4,18.6-45.5c12.4-13.1,27.7-19.6,45.8-19.6c17,0,31.7,5.9,43.9,17.6c12.3,11.7,18.4,26.4,18.4,44
		c0,17.8-6.5,33.4-19.4,46.8c-12.9,13.4-28,20.2-45.2,20.2c-17,0-31.6-6.2-43.9-18.5C435.9,298.9,429.8,283.9,429.8,266.3z
		 M453.6,265.4c0,16.8,3.9,30.8,11.7,41.9C473,318.5,482.6,324,494,324c10.5,0,19.7-5.2,27.6-15.7c8-10.5,12-24.3,12-41.6
		c0-15.4-3.8-29.2-11.5-41.3c-7.7-12.1-17.6-18.1-29.8-18.1c-11.3,0-20.6,5.5-27.9,16.5C457.2,234.8,453.6,248.7,453.6,265.4z
		 M798.4,205c-1.2,72.3-1.8,118.2-1.8,138c0,66.6,1.4,104.8,4.2,114.6c2.8,9.8,13.2,15.5,31.1,17.1c8,0.8,12.1,2.5,12.1,5.1
		c0,4.8-3.1,7.2-9.4,7.2c-1.6,0-3.4-0.1-5.4-0.3c-6.8-0.6-18.1-0.9-33.8-0.9c-32.6,0-57.8,0.4-75.7,1.2c-3.8,0.2-6.8,0.3-9.1,0.3
		c-6.4,0-9.7-1.8-9.7-5.4c0-3.8,3.4-5.9,10.3-6.3c20.9-1.4,33.7-6.3,38.3-14.6c4.6-8.3,6.9-27.1,6.9-56.3c0-80.1-0.4-131.4-1.2-154
		c-0.8-22.5-4.3-37.5-10.6-45c-6.2-7.4-16.1-11.2-29.6-11.2c-8.7,0-14.1-0.5-16.3-1.7c-2.2-1.1-3.3-3-3.3-5.6c0-3,3.6-4.6,10.9-4.8
		c13.9-0.2,28.8-2.4,44.6-6.6c15.9-4.2,28.2-9.5,37.1-15.7c2.2-1.6,4-2.4,5.4-2.4c3.2,0,4.8,2.8,4.8,8.5V205z M1032.1,158.2
		c36.4,0,68,16.6,94.7,49.7c26.7,33.1,40.1,71.5,40.1,115.2c0,44.1-13.5,83.2-40.4,117.4c-27,34.2-60,51.3-99.2,51.3
		c-37.8,0-69.7-16.3-95.6-48.9c-25.9-32.6-38.9-71.3-38.9-116.2c0-30.4,6.5-58.4,19.5-83.9c13-25.5,29.7-46,50.1-61.4
		C982.7,165.9,1005.9,158.2,1032.1,158.2z M1031.5,170c-26.7,0-48.2,14.1-64.4,42.3c-16.2,28.2-24.3,66.5-24.3,115
		c0,47.1,8.4,84.3,25.3,111.7c16.9,27.4,37.3,41.1,61.2,41.1c24.9,0,45.6-11.4,61.8-34.3c16.3-22.8,24.4-65,24.4-126.3
		c0-50.5-7.7-88.1-23.1-112.6C1077.2,182.3,1056.8,170,1031.5,170z M567.6,354.8c0-3.7-3-6.8-6.8-6.8H426c-3.7,0-6.8,3-6.8,6.8
		c0,3.7,3,6.8,6.8,6.8h134.8C564.6,361.6,567.6,358.6,567.6,354.8z"/>
	<g>
		<path class="st0" d="M129.5,574.3h8.6v27.5h0.7l28.1-27.5h12l-30.7,29.4L181,638h-12.6l-29.6-31.8h-0.7V638h-8.6V574.3z"/>
		<path class="st0" d="M287.9,574.3h8.6V638h-8.6V574.3z"/>
		<path class="st0" d="M425.2,582.4h-20.5v-8.1h49.5v8.1h-20.5V638h-8.6V582.4z"/>
		<path class="st0" d="M604.8,588.1c-1.8-2.3-4.1-4.1-6.8-5.4c-2.7-1.2-5.6-1.9-8.5-1.9c-3.6,0-6.8,0.7-9.7,2
			c-2.9,1.3-5.4,3.2-7.5,5.5c-2.1,2.3-3.7,5.1-4.8,8.2c-1.1,3.1-1.7,6.5-1.7,10.1c0,3.3,0.5,6.5,1.6,9.5c1.1,3,2.6,5.6,4.7,7.9
			c2,2.3,4.5,4.1,7.5,5.4c2.9,1.3,6.2,2,10,2c3.7,0,6.9-0.7,9.6-2.2c2.8-1.5,5.1-3.6,7-6.3l7.3,5.5c-0.5,0.7-1.3,1.6-2.5,2.8
			c-1.2,1.2-2.8,2.5-4.8,3.7c-2,1.2-4.4,2.3-7.1,3.2c-2.8,0.9-6,1.4-9.7,1.4c-5,0-9.6-1-13.6-2.9c-4-1.9-7.5-4.4-10.3-7.6
			c-2.8-3.1-5-6.6-6.5-10.6c-1.5-3.9-2.2-7.9-2.2-11.9c0-4.9,0.8-9.4,2.4-13.6c1.6-4.2,3.9-7.8,6.8-10.8c2.9-3,6.4-5.4,10.4-7
			c4.1-1.7,8.6-2.5,13.5-2.5c4.2,0,8.3,0.8,12.3,2.4c4,1.6,7.3,4.1,9.9,7.4L604.8,588.1z"/>
		<path class="st0" d="M722.1,574.3h8.6v26.4h32.9v-26.4h8.6V638h-8.6v-29.1h-32.9V638h-8.6V574.3z"/>
		<path class="st0" d="M887.5,574.3h41v8.1h-32.4v19h30.1v8.1h-30.1v20.4h34v8.1h-42.6V574.3z"/>
		<path class="st0" d="M1040.8,574.3h11.3l35,52.3h0.2v-52.3h8.6V638H1085l-35.4-52.3h-0.2V638h-8.6V574.3z"/>
	</g>
</g>
</svg>
