<?xml version="1.0" encoding="utf-8"?>
<!-- Generator: Adobe Illustrator 22.1.0, SVG Export Plug-In . SVG Version: 6.00 Build 0)  -->
<svg version="1.1" id="Layer_1" xmlns="http://www.w3.org/2000/svg" xmlns:xlink="http://www.w3.org/1999/xlink" x="0px" y="0px"
	 viewBox="0 0 1224 792" style="enable-background:new 0 0 1224 792;" xml:space="preserve">
<style type="text/css">
	.st0{fill:url(#SVGID_1_);}
</style>
<linearGradient id="SVGID_1_" gradientUnits="userSpaceOnUse" x1="147.9543" y1="669.0861" x2="973.322" y2="192.5598">
	<stop  offset="5.618000e-03" style="stop-color:#EBC17D"/>
	<stop  offset="0.1464" style="stop-color:#E2B770"/>
	<stop  offset="0.4262" style="stop-color:#D29E4D"/>
	<stop  offset="0.7303" style="stop-color:#C08329"/>
	<stop  offset="0.8912" style="stop-color:#DCAC68"/>
	<stop  offset="0.9494" style="stop-color:#EABE81"/>
</linearGradient>
<path class="st0" d="M324.7,618.2c0.8-0.1,1.5-0.5,2-1.2c0.5-0.6,0.9-1.2,1.2-1.8l15.4-33.5c0.4-1,0.7-1.7,1-2.3
	c0.2-0.6,0.4-1.2,0.4-1.7c0-0.4-0.1-0.7-0.3-0.8c-0.2-0.1-0.4-0.2-0.6-0.4v-1.9h15.6v1.9c-0.2,0.1-0.4,0.2-0.7,0.3
	c-0.2,0.1-0.4,0.3-0.4,0.8c0,0.4,0.2,0.9,0.5,1.5c0.3,0.6,0.6,1.3,1,2l16.7,35.1c0.3,0.6,0.7,1.1,1.1,1.3c0.4,0.3,0.9,0.5,1.3,0.6
	v1.9h-14.7v-1.6c0.3,0,0.7-0.1,1.1-0.3c0.4-0.2,0.6-0.6,0.6-1.1c0-0.4-0.1-0.8-0.2-1.1c-0.1-0.3-0.3-0.8-0.5-1.3l-2.8-5.9h-22.1
	l-2.9,5.6c-0.3,0.6-0.5,1-0.7,1.5c-0.2,0.5-0.3,0.9-0.3,1.2c0,0.6,0.2,0.9,0.5,1c0.3,0.1,0.8,0.2,1.4,0.2v1.9h-13.8V618.2z
	 M359.2,601.1l-8.4-17.3l-7.3,17.3H359.2z M401.8,618.2c1.2,0,1.9-0.5,1.9-1.5v-38.6c0-1-0.6-1.5-1.9-1.5v-1.9h15.2v1.9
	c-0.5,0.1-0.7,0.2-0.7,0.5c0,0.3,0.8,1.3,2.3,2.8l24.8,26.2v-27.9c0-1-0.7-1.5-2.1-1.5v-1.9h12.6v1.9c-1.2,0-1.9,0.5-1.9,1.5v38.6
	c0,1,0.6,1.5,1.9,1.5v1.9h-13.4v-1.9c0.5,0,0.7-0.2,0.7-0.5c0-0.3-0.3-0.8-1-1.4c-0.7-0.7-1.4-1.5-2.2-2.4l-25.6-27.2v30
	c0,1,0.7,1.5,2.2,1.5v1.9h-12.7V618.2z M480.4,618.2c1.6,0,2.4-0.5,2.4-1.5v-38.6c0-1-0.8-1.5-2.4-1.5v-1.9h28.7
	c4.1,0,7.5,0.7,10.4,2c2.9,1.3,5.2,3,7.1,5.1c1.8,2.1,3.2,4.5,4,7.2c0.9,2.7,1.3,5.5,1.3,8.4c0,2.9-0.4,5.7-1.2,8.4
	c-0.8,2.7-2.1,5.1-3.9,7.2c-1.8,2.1-4.1,3.8-6.9,5.1c-2.8,1.3-6.3,2-10.3,2h-29.1V618.2z M506.1,612.4c2.1,0,4.2-0.2,6.1-0.5
	c1.9-0.3,3.6-1,5-2.1c1.4-1.1,2.6-2.6,3.5-4.6c0.9-2,1.3-4.8,1.3-8.2c0-3.4-0.4-6.1-1.3-8.1c-0.9-2-2-3.4-3.5-4.4
	c-1.4-1-3.1-1.6-5-1.8c-1.9-0.2-4-0.4-6.1-0.4h-13.4v30.1H506.1z M643.2,587.7c0-0.1,0-0.3,0-0.4c0-0.1-0.1-0.3-0.1-0.5
	c0-0.3-0.3-0.8-1-1.4c-0.7-0.6-1.7-1.1-2.9-1.7c-1.3-0.6-2.8-1-4.5-1.4c-1.7-0.4-3.6-0.6-5.7-0.6c-2.5,0-4.7,0.3-6.8,1
	c-2,0.7-3.8,1.6-5.3,2.9c-1.5,1.3-2.7,2.9-3.5,4.9c-0.8,1.9-1.2,4.1-1.2,6.6c0,2.5,0.5,4.7,1.4,6.7c0.9,2,2.1,3.6,3.7,5
	c1.5,1.4,3.2,2.5,5.2,3.2c1.9,0.7,3.9,1.1,5.9,1.1c1.9,0,3.8-0.2,5.7-0.7c1.9-0.5,3.7-1.1,5.3-1.7c1.6-0.7,2.9-1.3,3.9-2.1
	c1-0.8,1.5-1.4,1.5-2.1v-0.8c0-0.4,0-0.8-0.1-1l1.1-1l7.6,10.9l-1,0.5c-0.8-0.3-1.4-0.5-1.8-0.5c-0.6,0-1.4,0.3-2.7,0.9
	c-1.2,0.6-2.8,1.3-4.7,2.1c-1.9,0.8-4.1,1.5-6.6,2c-2.5,0.6-5.3,0.8-8.4,0.8c-3.2,0-6.3-0.4-9.4-1.3c-3.1-0.9-5.8-2.3-8.3-4.3
	c-2.4-2-4.4-4.4-5.9-7.3c-1.5-2.9-2.3-6.3-2.3-10.2c0-3.8,0.8-7.2,2.3-10.1c1.5-2.9,3.5-5.3,6-7.3c2.5-2,5.3-3.4,8.5-4.4
	c3.2-1,6.5-1.5,9.8-1.5c2.6,0,5,0.2,7.2,0.7c2.2,0.5,4.1,1,5.7,1.7c1.6,0.6,3,1.2,4.1,1.6c1.1,0.5,1.9,0.7,2.4,0.7
	c0.3,0,0.6-0.1,0.9-0.3c0.2-0.2,0.5-0.4,0.8-0.5l1.2,0.7l-6.8,9.8L643.2,587.7z M700.1,574.1c3.8,0,7.3,0.5,10.7,1.5
	c3.3,1,6.2,2.4,8.7,4.3c2.5,1.9,4.4,4.4,5.9,7.3c1.4,2.9,2.2,6.3,2.2,10.3c0,3.9-0.7,7.3-2.2,10.3c-1.4,2.9-3.4,5.4-5.9,7.3
	c-2.5,1.9-5.4,3.3-8.7,4.2c-3.3,0.9-6.9,1.3-10.7,1.3c-3.8,0-7.3-0.4-10.7-1.3c-3.3-0.9-6.2-2.2-8.7-4.2c-2.5-1.9-4.4-4.3-5.9-7.3
	c-1.5-2.9-2.2-6.3-2.2-10.3c0-3.9,0.7-7.3,2.2-10.3c1.4-2.9,3.4-5.3,5.9-7.3c2.5-1.9,5.4-3.4,8.7-4.3
	C692.8,574.6,696.3,574.1,700.1,574.1z M700.1,581.7c-2.2,0-4.3,0.4-6.4,1.1c-2.1,0.7-4,1.7-5.6,3.1c-1.7,1.4-3,3-4,4.9
	c-1,1.9-1.5,4.1-1.5,6.6c0,2.5,0.5,4.7,1.5,6.6c1,1.9,2.3,3.6,4,4.9c1.6,1.3,3.5,2.4,5.6,3.1c2.1,0.7,4.2,1.1,6.4,1.1
	s4.4-0.4,6.5-1.1c2.1-0.7,4-1.8,5.6-3.1c1.6-1.3,3-3,4-4.9c1-1.9,1.5-4.1,1.5-6.6c0-2.5-0.5-4.7-1.5-6.6c-1-1.9-2.3-3.5-4-4.9
	c-1.7-1.3-3.5-2.4-5.6-3.1C704.5,582.1,702.3,581.7,700.1,581.7z M752.8,618.2c0.3-0.1,0.6-0.2,0.9-0.4c0.2-0.2,0.4-0.7,0.4-1.4
	v-37.7c0-1-0.1-1.5-0.3-1.7c-0.2-0.2-0.5-0.3-1-0.3v-1.9h14.3v1.9c-0.7,0-1,0.3-1,0.9c0,0.3,0.1,0.6,0.4,1.1
	c0.2,0.4,0.6,1.1,1.1,1.9l12.6,23.2l12.7-23.1c0.5-0.8,0.9-1.5,1.1-2c0.3-0.5,0.4-0.9,0.4-1.1c0-0.6-0.3-0.9-0.8-0.9v-1.9h14.5v1.9
	c-0.3,0-0.7,0.1-1,0.3c-0.3,0.2-0.5,0.5-0.5,1.1v38.8c0,0.6,0.1,1,0.5,1.2c0.3,0.2,0.6,0.4,1,0.4v1.9h-12v-1.9
	c1.4,0,2.1-0.5,1.9-1.5v-29h-0.2l-17.5,32.4h-0.8l-16.6-32.4h0.1h-0.2v29c0,1,0.6,1.5,1.7,1.5v1.9h-11.7V618.2z M837.8,578.1
	c0-1-0.9-1.5-2.6-1.5v-1.9h30c5.6,0,9.8,1,12.5,3c2.8,2,4.2,5.5,4.2,10.4c0,5-1.4,8.4-4.2,10.3c-2.8,1.9-7,2.8-12.5,2.8h-17.5v15.5
	c0,1,0.7,1.5,2.2,1.5v1.9h-14.7v-1.9c1.7,0,2.6-0.5,2.6-1.5V578.1z M865.1,593.6c2,0,3.7-0.4,5-1.1c1.3-0.7,2-2.2,2-4.4
	c0-2.1-0.7-3.6-2-4.5c-1.3-0.9-3-1.3-5-1.3h-17.3v11.2H865.1z M896.2,618.2c0.8-0.1,1.5-0.5,2-1.2c0.5-0.6,0.9-1.2,1.2-1.8
	l15.4-33.5c0.4-1,0.7-1.7,1-2.3c0.2-0.6,0.4-1.2,0.4-1.7c0-0.4-0.1-0.7-0.3-0.8c-0.2-0.1-0.4-0.2-0.6-0.4v-1.9h15.6v1.9
	c-0.2,0.1-0.4,0.2-0.7,0.3c-0.2,0.1-0.4,0.3-0.4,0.8c0,0.4,0.2,0.9,0.5,1.5c0.3,0.6,0.6,1.3,1,2l16.7,35.1c0.3,0.6,0.7,1.1,1.1,1.3
	c0.4,0.3,0.9,0.5,1.3,0.6v1.9h-14.6v-1.6c0.3,0,0.7-0.1,1.1-0.3c0.4-0.2,0.6-0.6,0.6-1.1c0-0.4-0.1-0.8-0.2-1.1
	c-0.1-0.3-0.3-0.8-0.5-1.3l-2.8-5.9h-22.1l-2.9,5.6c-0.3,0.6-0.5,1-0.7,1.5c-0.2,0.5-0.3,0.9-0.3,1.2c0,0.6,0.2,0.9,0.5,1
	c0.3,0.1,0.8,0.2,1.4,0.2v1.9h-13.8V618.2z M930.6,601.1l-8.4-17.3l-7.3,17.3H930.6z M973.2,618.2c1.2,0,1.9-0.5,1.9-1.5v-38.6
	c0-1-0.6-1.5-1.9-1.5v-1.9h15.2v1.9c-0.5,0.1-0.7,0.2-0.7,0.5c0,0.3,0.8,1.3,2.3,2.8l24.8,26.2v-27.9c0-1-0.7-1.5-2.1-1.5v-1.9h12.6
	v1.9c-1.2,0-1.9,0.5-1.9,1.5v38.6c0,1,0.6,1.5,1.9,1.5v1.9h-13.4v-1.9c0.5,0,0.7-0.2,0.7-0.5c0-0.3-0.3-0.8-1-1.4
	c-0.7-0.7-1.4-1.5-2.2-2.4l-25.6-27.2v30c0,1,0.7,1.5,2.2,1.5v1.9h-12.7V618.2z M1052.2,578.3c-0.5-0.6-1.1-1.1-1.7-1.3
	c-0.7-0.3-1.3-0.4-2-0.4v-1.9h17v1.9c-0.3,0-0.7,0.1-1.1,0.4c-0.4,0.2-0.6,0.6-0.6,1c0,0.4,0.1,0.8,0.4,1.1c0.3,0.3,0.6,0.8,0.9,1.2
	l10.4,13.6l9.2-12.8c0.6-0.9,1.1-1.6,1.4-2c0.3-0.5,0.5-0.9,0.5-1.3c0-0.5-0.2-0.9-0.5-1c-0.3-0.1-0.7-0.2-1-0.2v-1.9h15.8v1.9
	c-0.8,0-1.7,0.5-2.7,1.4c-1,0.9-1.9,1.9-2.6,2.8l-15.8,20.4v15.5c0,1,0.7,1.5,2,1.5v1.9h-13.7v-1.9c1.2,0,1.9-0.5,1.9-1.5v-15.9
	L1052.2,578.3z M449.7,274.1c7.5,0,39.2-0.2,46.7-0.5c6.2-0.2,12.4-0.1,18.5-1.2c2.4-0.4,5-3.1,6.2-5.5c4.9-9.8,8.9-20.1,14.1-29.8
	c5.1-9.4,11.8-18,16.9-27.5c9.3-17.3,18.4-34.7,26.6-52.6c5.6-12.4,15.8-17.5,27.7-19.7c5.3-1,6.6,4.6,5.7,8.8
	c-1.9,8.4-3.9,17-7.2,24.9c-5.2,12.2-11.4,24-17.5,35.7c-8.9,17-18.1,33.8-27.3,50.5c-3.6,6.5-0.4,13.4,7.1,13.7
	c8.5,0.3,17.1,0.4,25.6-0.1c2.1-0.1,5-2.2,6-4.2c4.9-9.8,8.9-20.1,14.1-29.8c4.9-9,11.3-17.2,16.2-26.3
	c9.5-17.7,18.9-35.5,27.3-53.8c5.6-12.1,15.5-17,27.2-19.5c5.5-1.2,7.1,4,6.1,8.3c-1.9,8.7-3.9,17.5-7.4,25.6
	c-5.3,12.6-11.6,24.9-18,37c-8.6,16.4-17.7,32.4-26.3,48.8c-1.3,2.4-2.7,6.5-1.5,8c2.1,2.8,5.9,5.7,9.1,5.8
	c16.3,0.6,32.6-0.1,48.9,0.4c16,0.4,32,2.3,48,2.4c14.7,0,29.4-1.3,44-2.6c6.9-0.6,9.8,4.1,13.4,8c0.7,0.7,0.6,3.3,0.1,3.6
	c-1.6,1-3.7,1.9-5.6,1.9c-11.6-0.3-23.2-1.1-34.9-1.5c-9.4-0.3-18.9-0.8-28.3-0.5c-31.5,0.9-63,0.2-94.5-0.1
	c-8.5-0.1-14.3,2.6-18.5,10.8c-7.5,14.6-16.5,28.4-24.7,42.7c-2,3.5-3.3,7.5-4.9,11.3c-8.4,20.5-15.4,41.7-25.7,61.2
	c-8,15.1-11.1,31.3-16.1,47.1c-2,6.1-2.1,12.8-3.3,21.2c3.9-2,6.3-2.7,8.1-4.2c16.4-13.7,32.3-27.9,49.1-41.1
	c7-5.5,10.9-10.9,12.2-20.1c1.5-10.7,5.9-21.2,10.4-31.1c3.1-6.9,8.8-12.2,16.7-14.2c5.8-1.5,9.5,1.3,11.5,6.2
	c5.5,13.4,0.8,29.3-10.6,38.1c-7.2,5.5-11.5,12.1-11.1,22.2c0.6,18,2.1,35.7,7.9,52.9c2.4,7,3.6,7.3,9,1.9
	c17.2-17.2,34.3-34.5,51.7-51.6c4.2-4.2,9.2-7.6,13.6-11.6c2-1.8,3.6-4,5-6.3c2.7-4.5,4.6-9.6,7.9-13.6c1.6-2,5.7-2.9,8.5-2.6
	c1.1,0.1,2.8,4.9,2.5,7.3c-1.8,13.4-3.5,26.3,0.1,40.1c1.7,6.6-2.5,14.9-4.1,22.4c-1.9,8.9-3.8,17.7-5.7,26.6c0.5,0.4,1,0.8,1.6,1.2
	c2.5-2,5.3-3.6,7.4-5.9c19.7-21.6,39-43.5,58.9-64.8c19.6-21,39.9-41.4,60-62c1.3-1.3,3.8-1.5,5.8-2.2c0.2,2.1,1,4.4,0.5,6.4
	c-4.9,16.4-10.1,32.8-15,49.2c-0.7,2.2-0.3,4.7-0.5,7.1c2.3-0.3,4.6-0.5,6.9-0.9c9.7-1.9,19.3-3.8,28.9-5.7c6.5-1.3,13.3-2,19.4-4.4
	c6-2.3,11.4-6.4,17.1-9.6c2-1.1,4.1-1.7,5.9-2.5c0.8,0.6,1.5,0.9,1.5,1.2c0.5,8.2,6.3,9.7,12.8,9.5c16.8-0.5,33.5-1.3,50.3-1.9
	c4.8-0.2,9.7-0.2,14.4-0.7c8.4-0.8,14.6,1.1,15.1,13.1c5.1-5.1,9-8.8,12.8-12.5c12.9-12.8,17.5-12.4,24.1,4.5
	c3.5,8.9,4.2,19,5.9,28.7c0.7,3.8,0.7,7.8,1.3,11.6c0.9,6.1,5.2,8,9.6,3.7c6.6-6.4,12.5-13.4,18.7-20.3c3.8-4.3,7.1-9.1,11.4-12.9
	c1.6-1.5,5.2-0.8,7.9-1c-0.6,2.7-0.4,6-1.9,7.8c-11.7,14-24.3,27.3-35.5,41.8c-5.4,7-12.6,9.6-19.9,12.6c-4.6,1.9-11.9-3-12.1-8.2
	c-0.7-15.1-0.7-30.2-0.7-45.3c0-6.1,0.6-12.3,0.9-18.4c-0.6-0.4-1.3-0.8-1.9-1.2c-3.5,3.5-7.9,6.5-10.5,10.7
	c-9.6,15.8-18.6,32-28,47.9c-1,1.7-3.4,2.6-5.1,3.9c-1-1.8-3.1-3.8-2.9-5.5c0.7-9.1,1.4-18.2,3.3-27.1c1.9-9.1,5.2-18,8.4-28.4
	c-4.7,0.7-8.3,1.5-11.9,1.7c-12.8,1-25.7,1.8-38.5,2.7c-5.9,0.4-11.9,0.8-17.8,1.6c-6.9,1-8.3,4.8-7.7,12.1
	c0.5,6.3,7.1,11.4,3.2,18.1c-3.1,5.4-6.4,10.8-10.4,15.5c-3.4,4-7.5,7.9-12.2,10c-6.9,3-14.5,5.7-21.9,5.8
	c-7.8,0.1-13.5-14.3-9.9-24.4c3.2-9,7.6-17.6,11.6-26.3c1-2.2,2.5-4.3,3.7-6.4c-0.3-0.7-0.5-1.3-0.8-2c-11,2.6-21.8,5.9-32.9,7.6
	c-10.9,1.7-17.1,8.8-22.8,17c-1.2,1.7-2.2,3.5-2.9,5.4c-4.6,12.9-8.5,26.1-13.9,38.7c-3,6.9-7.9,13.3-13.1,18.9
	c-2,2.2-7.5,2.7-10.7,1.7c-2-0.6-4.1-5.6-3.7-8.3c1.4-8.2-5.6-12-8.3-17.9c-2.7-5.9-5.6-11.8-8.5-17.6c-1.1-2.2-2.2-4.3-3.8-7.6
	c-13.4,16.7-26.1,32.4-38.8,48.1c-4.3,5.3-8.5,10.8-13.1,15.8c-1.9,2.1-4.6,4-7.3,4.5c-7.4,1.3-9.1,0.1-8.1-7.3
	c1.2-8.3,3.9-16.4,6.1-24.5c3.8-13.9,7.7-27.7,11.5-41.6c1.7-6.2-0.6-15.4-6.2-24c-9.4,10.4-18.2,21-27.8,30.7
	c-12.5,12.6-25.3,24.9-38.6,36.7c-6.9,6.1-18.3,3.4-23.7-4.4c-9.5-13.9-13-29.6-14-46.1c-0.3-4.8,0-9.6,0-16.4
	c-7.4,6.4-13.6,11.6-19.7,16.9c-16.9,14.6-33.8,29.1-50.5,43.8c-5.4,4.8-11.8,5-17.4,2.8c-3-1.2-6.2-6.7-6-10
	c0.7-14.3,2.5-28.5,4-42.9c-6.5,5.7-13.4,11.7-20.4,17.7c-12.7,10.9-25.5,21.9-38.2,32.8c-5.6,4.8-12.1,4.6-18.1,2
	c-6.8-2.9-5.2-9.5-4.8-15.1c0.6-7.8,1.7-15.5,2.7-25.1c-6.6,8.1-12,15-17.6,21.6c-4.1,4.8-8.3,11.2-15.4,9.7
	c-8.6-1.8-17.2-5.1-20.7-14.8c-0.7-1.9-1.2-3.9-2.1-5.8c-2.1-4.7-5.9-5.7-9.9-2.1c-3.6,3.2-6.5,7.2-10.1,10.3
	c-4.6,4-9.2,8.5-14.6,11c-10.5,4.9-18.5,0.3-25-10.5c-7.5-12.3-5.7-25.4-0.3-38.2c7.4-17.5,21.8-25.8,39.1-30.6
	c6.4-1.8,13.4,2.3,18,9.7c1.2,1.9,3.1,3.4,4.7,5.1c1.2-1.8,2.4-3.6,3.6-5.5c2.7-4.2,5-8.8,8.4-12.4c1.6-1.7,5.5-2.2,8-1.6
	c1.4,0.4,2.7,4,2.8,6.2c0.1,11.7-0.5,23.5-0.2,35.2c0.2,8.5,1.2,16.9,2.2,25.3c0.5,3.7,3.1,5.7,6.2,2.2
	c9.2-10.5,19.1-20.6,26.7-32.2c5.1-7.7,6.5-17.8,9.9-26.7c6.3-16.7,12.9-33.2,19.4-49.8c4.5-11.2,8.8-22.6,13.8-33.5
	c2.9-6.4,7.2-12.2,10.6-18.3c3.9-7,7.7-14.1,11.4-21.2c3-5.8,1.7-8.7-4.8-9.6c-5.2-0.7-10.5-0.5-15.8-0.5c-18.8,0-27.4-0.1-46.2-0.1
	 M465.7,476.5c3.6-1.5,5.3-1.8,6.4-2.7c16-13.1,32.3-25.8,47.6-39.6c4.9-4.4,7.7-11.5,10.6-17.8c2.9-6.4,4.4-13.5,7.1-20
	c5.3-13.4,10.6-26.7,16.5-39.8c5.8-13.1,12.1-25.9,18.5-38.7c4.7-9.4,10.1-18.5,14.9-27.9c1.6-3.2,2.4-6.8-2.6-8.2
	c-11-3-21.8-1.4-32.6,1c-7.2,1.6-10,7.3-13,12.9c-10.1,18.9-20.2,37.8-30.1,56.8c-1.9,3.6-2.9,7.7-4.6,11.4
	c-9.3,21.7-19,43.4-28,65.2c-3,7.3-4.9,15.2-6.7,22.9C468.1,459.5,467.2,467.1,465.7,476.5z M344.2,453.3c0.7,4.1,1,8.7,2.3,13
	c0.8,2.8,3.1,7.3,4.6,7.3c3-0.1,6.6-2.2,8.7-4.6c6.3-7.2,12.1-14.8,18-22.3c8.5-10.6,8.4-11.2,2-23c-2.9-5.4-6.4-9.6-13.1-8.9
	c-6.8,0.7-17.9,9-18.8,14.2C346.4,436.9,345.5,444.9,344.2,453.3z M782.1,449.2c6.6,2.7,28.3-3.7,31.3-9.5
	c7.1-13.8,13.3-27.9,19.9-41.9c-0.5-0.4-1.1-0.7-1.6-1.1C815.2,414.1,798.8,431.5,782.1,449.2z M647.4,375.2
	c-10.8,2-18.2,16.9-14.4,28C643.8,396.7,649.4,386,647.4,375.2z M806.3,454.8c-8.3-1.4-13.1,4-18.2,8.4c-1.8,1.5-2.3,4.4-3.4,6.7
	c2.6,0.9,5.3,2.8,7.9,2.6C800.6,471.8,806.9,463.6,806.3,454.8z M919.4,444c-6,0-11.9,6.8-11.6,13.7c0.1,2.2,1.1,5,2.7,6.3
	c0.9,0.7,4-1,5.9-2.1C923.9,457.4,921.9,450.9,919.4,444z M473.4,218.1c-2.4-11.4-2-24.1-7.7-32.4c-9.9-14.4-22.5-27.7-36.1-38.7
	c-12.3-10-27.6-16.5-41.6-24.4c-10.6-6-18.6-13.1-16.3-27c0.6-3.6,0.4-7.6-0.7-11c-1-3.2-3.5-6-5.3-9c-3.2,2.1-7.3,3.6-9.2,6.6
	c-2.9,4.4-5,9.6-6.3,14.7c-1.9,7.8-6.4,9.6-13.9,9.4c-18.2-0.5-36.4-0.4-54.7,0c-4.8,0.1-9.5,2.5-14.3,3.8c0,1.3,0,2.7,0.1,4
	c4.2,1.2,8.3,3.1,12.6,3.6c15.4,1.8,40.3,7.2,55.2,11.3c13.2,3.7,6,16.3,2.7,29.5c-3.5,14.2-2.4,9.2-7.3,23
	c-12.1,34.5-23.9,68.8-36.5,103.1c-14.1,38.6-29.1,77-42.6,115.9c-6.4,18.3-56.7,188.9-65.1,217.9c-7.2,25.1-13.1,50.6-19.3,75.9
	c-1.2,4.9-1.6,10.3,5.7,11.8c10.8,2.1,22.8-11.5,24-22.2c1.1-9.9,2.7-19.9,5.5-29.5c8-27,17.2-53.6,24.9-80.7
	c7.1-24.8,4.4-22.9,14.5-56.6c17.5-57.7,36.1-115.1,54.3-172.7c4.7-14.9,10.4-17.5,25.6-15.4c8,1.1,16.9,0.8,24.6-1.5
	c14.7-4.5,29-10.6,43.2-16.6c11.9-5.1,24.2-10,35.1-16.9c10.6-6.8,21.7-14.6,28.9-24.6c9-12.5,14.2-27.7,21.1-41.8
	C473.9,225,473.7,220.4,473.4,218.1z M438.6,215.3c-1.5,6.1-1.1,7.1-2.5,11.9c-6.7,25.2-18.7,37.1-37.1,51.4
	c-21,16.4-43.9,25.3-68.9,31c-6.1,1.4-12.6,1-20.8,1.5c18.5-56.8,36.3-111.5,54-166.1C404.7,141.9,445.7,173.4,438.6,215.3z"/>
</svg>
