<?xml version="1.0" encoding="utf-8"?>
<!-- Generator: Adobe Illustrator 22.1.0, SVG Export Plug-In . SVG Version: 6.00 Build 0)  -->
<svg version="1.1" id="Layer_1" xmlns="http://www.w3.org/2000/svg" xmlns:xlink="http://www.w3.org/1999/xlink" x="0px" y="0px"
	 viewBox="0 0 1224 792" style="enable-background:new 0 0 1224 792;" xml:space="preserve">
<style type="text/css">
	.st0{fill:#BE1E2D;}
	.st1{fill:#FFFFFF;}
</style>
<g>
	<g>
		<path class="st0" d="M1101.5,175.8l-482.2-58.8h0l-482.2,58.8c-20.3,0-36.8,16.5-36.8,36.8v416.8c0,20.3,16.5,36.8,36.8,36.8
			L619.3,725h0l482.2-58.8c20.3,0,36.8-16.5,36.8-36.8V212.6C1138.3,192.3,1121.8,175.8,1101.5,175.8z"/>
	</g>
	<g>
		<g>
			<path class="st1" d="M559,234.4h-14.5v-11.8H586v11.8h-14.5v75.5H559V234.4z"/>
		</g>
		<g>
			<path class="st1" d="M598.1,222.6h12.5V260h15.4v-37.4h12.5v87.3h-12.5V271h-15.4v38.9h-12.5V222.6z"/>
		</g>
		<g>
			<path class="st1" d="M654.2,222.6h37.3v11.8h-24.8V260h21.6v11.8h-21.6v25.6h24.8v12.5h-37.3V222.6z"/>
		</g>
	</g>
	<g>
		<path class="st1" d="M619.5,706.7L154,651.8c0,0,0,0,0,0c-20.4,0-37.2-16.3-37.2-36.3V226.5c0-20,16.8-36.3,37.4-36.3l464.8-54.8
			l465.4,54.8c20.6,0.1,37.3,16.3,37.3,36.3v389.1c0,20-16.8,36.3-37.4,36.3L619.5,706.7z M619.1,139.2l-464.6,54.8
			c-18.7,0-33.8,14.5-33.8,32.4v389.1c0,17.9,15,32.4,33.5,32.4l465.3,54.9l464.6-54.8c18.7,0,33.8-14.5,33.8-32.4V226.5
			c0-17.9-15-32.4-33.5-32.4l-0.2,0L619.1,139.2z"/>
	</g>
	<g>
		<g>
			<path class="st1" d="M176.5,341h27.4L247,461.1h0.6V341h28.5v199.3h-26.9l-43.7-119.8H205v119.8h-28.5V341z"/>
		</g>
		<g>
			<path class="st1" d="M345.6,341h23.8l44.5,199.3h-28.5l-8.4-42.8h-38.9l-8.4,42.8h-28.5L345.6,341z M357.7,398.4h-0.6l-14,72.2
				h28.6L357.7,398.4z"/>
		</g>
		<g>
			<path class="st1" d="M448,367.9h-33V341h94.6v26.9h-33v172.4H448V367.9z"/>
		</g>
		<g>
			<path class="st1" d="M534.8,341h28.6v199.3h-28.6V341z"/>
		</g>
		<g>
			<path class="st1" d="M595,388c0-8,1.4-15.1,4.2-21.3c2.8-6.2,6.5-11.2,11.1-15.3c4.6-4,9.7-7,15.4-9.1c5.7-2.1,11.4-3.1,17.2-3.1
				c5.8,0,11.5,1,17.2,3.1c5.7,2.1,10.8,5.1,15.4,9.1c4.6,4,8.3,9.1,11.1,15.3c2.8,6.2,4.2,13.2,4.2,21.3v105.2
				c0,8.2-1.4,15.4-4.2,21.4c-2.8,6.1-6.5,11.1-11.1,15.1c-4.6,4-9.7,7-15.4,9.1c-5.7,2.1-11.4,3.1-17.2,3.1c-5.8,0-11.5-1-17.2-3.1
				c-5.7-2.1-10.8-5.1-15.4-9.1c-4.6-4-8.3-9-11.1-15.1c-2.8-6.1-4.2-13.2-4.2-21.4V388z M623.6,493.3c0,6.9,1.9,12,5.7,15.3
				c3.8,3.3,8.3,4.9,13.6,4.9c5.2,0,9.8-1.6,13.6-4.9c3.8-3.3,5.7-8.4,5.7-15.3V388c0-6.9-1.9-12-5.7-15.3
				c-3.8-3.3-8.4-4.9-13.6-4.9c-5.2,0-9.8,1.6-13.6,4.9c-3.8,3.3-5.7,8.4-5.7,15.3V493.3z"/>
		</g>
		<g>
			<path class="st1" d="M721.2,341h27.4l43.1,120.1h0.6V341h28.5v199.3H794l-43.7-119.8h-0.6v119.8h-28.5V341z"/>
		</g>
		<g>
			<path class="st1" d="M890.3,341h23.8l44.5,199.3h-28.6l-8.4-42.8h-38.9l-8.4,42.8h-28.6L890.3,341z M902.4,398.4h-0.6l-14,72.2
				h28.6L902.4,398.4z"/>
		</g>
		<g>
			<path class="st1" d="M984.3,341h28.6v170.7h56.5v28.5h-85.1V341z"/>
		</g>
	</g>
	<g>
		<g>
			<polygon class="st1" points="1050.9,582.2 1054.5,593.2 1066.1,593.2 1056.7,600 1060.3,611 1050.9,604.2 1041.5,611 1045.1,600 
				1035.7,593.2 1047.3,593.2 			"/>
		</g>
		<g>
			<polygon class="st1" points="187.7,582.2 191.3,593.2 202.8,593.2 193.5,600 197,611 187.7,604.2 178.3,611 181.9,600 
				172.5,593.2 184.1,593.2 			"/>
		</g>
		<g>
			<polygon class="st1" points="331.6,602.6 335.1,613.6 346.7,613.6 337.3,620.4 340.9,631.4 331.6,624.6 322.2,631.4 325.8,620.4 
				316.4,613.6 328,613.6 			"/>
		</g>
		<g>
			<polygon class="st1" points="475.4,623.1 479,634.1 490.6,634.1 481.2,640.9 484.8,651.9 475.4,645.1 466.1,651.9 469.6,640.9 
				460.3,634.1 471.8,634.1 			"/>
		</g>
		<g>
			<polygon class="st1" points="619.3,643.5 622.9,654.5 634.5,654.5 625.1,661.3 628.7,672.3 619.3,665.5 609.9,672.3 613.5,661.3 
				604.1,654.5 615.7,654.5 			"/>
		</g>
		<g>
			<polygon class="st1" points="763.2,623.1 766.7,634.1 778.3,634.1 769,640.9 772.5,651.9 763.2,645.1 753.8,651.9 757.4,640.9 
				748,634.1 759.6,634.1 			"/>
		</g>
		<g>
			<polygon class="st1" points="907,602.6 910.6,613.6 922.2,613.6 912.8,620.4 916.4,631.4 907,624.6 897.7,631.4 901.2,620.4 
				891.9,613.6 903.5,613.6 			"/>
		</g>
	</g>
	<g>
		<g>
			<polygon class="st1" points="1050.9,227.2 1054.5,238.2 1066.1,238.2 1056.7,245 1060.3,256 1050.9,249.2 1041.5,256 1045.1,245 
				1035.7,238.2 1047.3,238.2 			"/>
		</g>
		<g>
			<polygon class="st1" points="187.7,227.2 191.3,238.2 202.8,238.2 193.5,245 197,256 187.7,249.2 178.3,256 181.9,245 
				172.5,238.2 184.1,238.2 			"/>
		</g>
		<g>
			<polygon class="st1" points="331.6,206.7 335.1,217.7 346.7,217.7 337.3,224.5 340.9,235.6 331.6,228.8 322.2,235.6 325.8,224.5 
				316.4,217.7 328,217.7 			"/>
		</g>
		<g>
			<polygon class="st1" points="475.4,186.3 479,197.3 490.6,197.3 481.2,204.1 484.8,215.1 475.4,208.3 466.1,215.1 469.6,204.1 
				460.3,197.3 471.8,197.3 			"/>
		</g>
		<g>
			<polygon class="st1" points="763.2,186.3 766.7,197.3 778.3,197.3 769,204.1 772.5,215.1 763.2,208.3 753.8,215.1 757.4,204.1 
				748,197.3 759.6,197.3 			"/>
		</g>
		<g>
			<polygon class="st1" points="907,206.7 910.6,217.7 922.2,217.7 912.8,224.5 916.4,235.6 907,228.8 897.7,235.6 901.2,224.5 
				891.9,217.7 903.5,217.7 			"/>
		</g>
	</g>
</g>
</svg>
