<?xml version="1.0" encoding="utf-8"?>
<!-- Generator: Adobe Illustrator 22.1.0, SVG Export Plug-In . SVG Version: 6.00 Build 0)  -->
<svg version="1.1" id="Layer_1" xmlns="http://www.w3.org/2000/svg" xmlns:xlink="http://www.w3.org/1999/xlink" x="0px" y="0px"
	 viewBox="0 0 1224 792" style="enable-background:new 0 0 1224 792;" xml:space="preserve">
<style type="text/css">
	.st0{fill:url(#SVGID_1_);}
	.st1{fill:url(#SVGID_2_);}
	.st2{fill:url(#SVGID_3_);}
	.st3{fill:url(#SVGID_4_);}
	.st4{fill:url(#SVGID_5_);}
	.st5{fill:url(#SVGID_6_);}
	.st6{fill:url(#SVGID_7_);}
	.st7{fill:url(#SVGID_8_);}
	.st8{fill:url(#SVGID_9_);}
	.st9{fill:url(#SVGID_10_);}
	.st10{fill:url(#SVGID_11_);}
	.st11{fill:url(#SVGID_12_);}
	.st12{fill:url(#SVGID_13_);}
	.st13{fill:none;stroke:url(#SVGID_14_);stroke-miterlimit:10;}
	.st14{fill:#FFFFFF;}
</style>
<g>
	<g>
		<g>
			<linearGradient id="SVGID_1_" gradientUnits="userSpaceOnUse" x1="413.5285" y1="170.9695" x2="413.5285" y2="540.3789">
				<stop  offset="0" style="stop-color:#EE2A7B"/>
				<stop  offset="1" style="stop-color:#92278F"/>
			</linearGradient>
			<path class="st0" d="M448.8,540.4h-70.6V171l70.6-0.1L448.8,540.4z M408.8,509.8h9.4V201.7h-9.4V509.8z"/>
		</g>
		<g>
			<linearGradient id="SVGID_2_" gradientUnits="userSpaceOnUse" x1="325.9984" y1="170.9695" x2="325.9984" y2="540.3789">
				<stop  offset="0" style="stop-color:#EE2A7B"/>
				<stop  offset="1" style="stop-color:#92278F"/>
			</linearGradient>
			<polygon class="st1" points="361.3,540.4 290.7,540.4 290.7,520.6 290.7,190.8 290.7,171 361.3,171 361.3,243.4 330.7,243.4 
				330.7,201.7 321.3,201.7 321.3,509.8 330.7,509.8 330.7,467.9 361.3,467.9 			"/>
		</g>
		<g>
			<linearGradient id="SVGID_3_" gradientUnits="userSpaceOnUse" x1="588.9565" y1="170.9695" x2="588.9565" y2="540.6697">
				<stop  offset="0" style="stop-color:#EE2A7B"/>
				<stop  offset="1" style="stop-color:#92278F"/>
			</linearGradient>
			<polygon class="st2" points="573.4,540.7 553.7,540.7 553.7,439.2 584.3,439.2 584.3,510 593.7,510 593.7,371 553.7,371 
				553.7,351.5 553.7,190.8 553.7,171 624.3,171 624.3,272.4 593.7,272.4 593.7,201.7 584.3,201.7 584.3,340.4 624.3,340.4 
				624.3,540.6 			"/>
		</g>
		<g>
			<linearGradient id="SVGID_4_" gradientUnits="userSpaceOnUse" x1="155.2444" y1="171.0486" x2="155.2444" y2="540.3789">
				<stop  offset="0" style="stop-color:#EE2A7B"/>
				<stop  offset="1" style="stop-color:#92278F"/>
			</linearGradient>
			<polygon class="st3" points="170.5,540.4 140,540.4 139.9,520.6 140,190.8 139.9,171 170.5,171 			"/>
		</g>
		<g>
			<linearGradient id="SVGID_5_" gradientUnits="userSpaceOnUse" x1="230.4913" y1="171.0486" x2="230.4913" y2="540.3838">
				<stop  offset="0" style="stop-color:#EE2A7B"/>
				<stop  offset="1" style="stop-color:#92278F"/>
			</linearGradient>
			<polygon class="st4" points="265.6,540.4 236.1,540.4 226,451.8 226,540.4 195.4,540.4 195.4,171 224.7,171 225.9,180.7 
				235,260.3 235,171 265.6,171 			"/>
		</g>
		<g>
			<linearGradient id="SVGID_6_" gradientUnits="userSpaceOnUse" x1="87.9311" y1="170.9695" x2="87.9311" y2="540.3789">
				<stop  offset="0" style="stop-color:#EE2A7B"/>
				<stop  offset="1" style="stop-color:#92278F"/>
			</linearGradient>
			<polygon class="st5" points="123.2,540.4 52.6,540.4 52.6,520.6 52.6,190.8 52.6,171 123.2,171 123.2,243.4 92.6,243.4 
				92.6,201.7 83.2,201.7 83.2,509.8 92.6,509.8 92.6,467.9 123.2,467.9 			"/>
		</g>
		<g>
			<linearGradient id="SVGID_7_" gradientUnits="userSpaceOnUse" x1="982.1078" y1="171.0329" x2="982.1078" y2="540.3838">
				<stop  offset="0" style="stop-color:#EE2A7B"/>
				<stop  offset="1" style="stop-color:#92278F"/>
			</linearGradient>
			<path class="st6" d="M946.8,540.4V171l41.6,0c14.7,0.4,27.1,11.7,28.9,26.3l0.1,1.3l0,157.1l0,157.7l-0.1,0.7
				c-1.8,14.6-14.2,25.9-28.9,26.3l-8,0v0L946.8,540.4z M977.4,509.7h9.4V201.7h-9.4V509.7z"/>
		</g>
		<g>
			<linearGradient id="SVGID_8_" gradientUnits="userSpaceOnUse" x1="1076.9142" y1="170.9695" x2="1076.9142" y2="540.3789">
				<stop  offset="0" style="stop-color:#EE2A7B"/>
				<stop  offset="1" style="stop-color:#92278F"/>
			</linearGradient>
			<path class="st7" d="M1112.2,540.4h-70.6l0-19.8l0-329.8l0-19.8l70.6-0.1L1112.2,540.4z M1072.2,509.8h9.4V201.7h-9.4V509.8z"/>
		</g>
		<g>
			<linearGradient id="SVGID_9_" gradientUnits="userSpaceOnUse" x1="683.5566" y1="170.9695" x2="683.5566" y2="540.3789">
				<stop  offset="0" style="stop-color:#EE2A7B"/>
				<stop  offset="1" style="stop-color:#92278F"/>
			</linearGradient>
			<polygon class="st8" points="718.9,540.4 648.3,540.4 648.3,520.6 648.3,360.2 648.3,351.2 648.3,190.8 648.3,171 718.8,171 
				718.9,201.7 678.9,201.7 678.9,340.4 718.8,340.4 718.8,371 678.9,371 678.9,509.8 718.8,509.8 			"/>
		</g>
		<g>
			<linearGradient id="SVGID_10_" gradientUnits="userSpaceOnUse" x1="1172.2545" y1="170.9695" x2="1172.2545" y2="540.6697">
				<stop  offset="0" style="stop-color:#EE2A7B"/>
				<stop  offset="1" style="stop-color:#92278F"/>
			</linearGradient>
			<polygon class="st9" points="1156.7,540.7 1137,540.7 1137,439.2 1167.6,439.2 1167.6,510 1177,510 1177,371 1137,371 
				1137,351.5 1137,190.8 1136.9,171 1207.6,171 1207.6,272.4 1177,272.4 1177,201.7 1167.6,201.7 1167.6,340.4 1207.6,340.4 
				1207.6,540.6 			"/>
		</g>
		<g>
			<linearGradient id="SVGID_11_" gradientUnits="userSpaceOnUse" x1="769.9668" y1="171.0486" x2="769.9668" y2="540.3838">
				<stop  offset="0" style="stop-color:#EE2A7B"/>
				<stop  offset="1" style="stop-color:#92278F"/>
			</linearGradient>
			<polygon class="st10" points="805.1,540.4 775.6,540.4 765.5,451.8 765.5,540.4 734.9,540.4 734.9,171 764.3,171 774.5,260.3 
				774.5,171 805.1,171 			"/>
		</g>
		<g>
			<linearGradient id="SVGID_12_" gradientUnits="userSpaceOnUse" x1="908.3327" y1="171.0486" x2="908.3327" y2="540.3789">
				<stop  offset="0" style="stop-color:#EE2A7B"/>
				<stop  offset="1" style="stop-color:#92278F"/>
			</linearGradient>
			<rect x="893" y="171" class="st11" width="30.6" height="369.3"/>
		</g>
		<g>
			<linearGradient id="SVGID_13_" gradientUnits="userSpaceOnUse" x1="849.1313" y1="171.0594" x2="849.1313" y2="540.3789">
				<stop  offset="0" style="stop-color:#EE2A7B"/>
				<stop  offset="1" style="stop-color:#92278F"/>
			</linearGradient>
			<polygon class="st12" points="864.4,540.4 833.8,540.4 833.8,201.7 813.8,201.7 813.8,171.1 884.4,171.1 884.4,201.7 
				864.4,201.7 			"/>
		</g>
	</g>
	<g>
		<linearGradient id="SVGID_14_" gradientUnits="userSpaceOnUse" x1="501.0589" y1="171.9193" x2="501.0589" y2="540.8036">
			<stop  offset="0" style="stop-color:#EE2A7B"/>
			<stop  offset="1" style="stop-color:#92278F"/>
		</linearGradient>
		<path class="st13" d="M519.5,272.5c0,10.2-8.2,18.4-18.4,18.4c-10.2,0-18.4-8.2-18.4-18.4c0-10.2,8.2-18.4,18.4-18.4
			C511.2,254.1,519.5,262.4,519.5,272.5z M519.5,190.8c0,10.2-8.2,18.4-18.4,18.4c-10.2,0-18.4-8.2-18.4-18.4
			c0-10.2,8.2-18.4,18.4-18.4C511.2,172.4,519.5,180.7,519.5,190.8z M519.5,355.8c0,10.2-8.2,18.4-18.4,18.4
			c-10.2,0-18.4-8.2-18.4-18.4c0-10.2,8.2-18.4,18.4-18.4C511.2,337.4,519.5,345.7,519.5,355.8z M519.5,437.8
			c0,10.2-8.2,18.4-18.4,18.4c-10.2,0-18.4-8.2-18.4-18.4c0-10.2,8.2-18.4,18.4-18.4C511.2,419.4,519.5,427.6,519.5,437.8z
			 M519.5,521.9c0,10.2-8.2,18.4-18.4,18.4c-10.2,0-18.4-8.2-18.4-18.4c0-10.2,8.2-18.4,18.4-18.4
			C511.2,503.5,519.5,511.7,519.5,521.9z"/>
		<g>
			<g>
				<g>
					<path class="st14" d="M112.4,181.9L112.4,181.9l0,8.9h0v41.8h-8.9v-41.8H72.4v329.8h31.1v-41.8h8.9v41.8h0v8.9h0h-8.9H72.4
						h-8.9h0v-8.9h0V190.8h0v-8.9h0h8.9h31.1v-0.1L112.4,181.9L112.4,181.9z M150.8,181.9v8.9h0v329.8h0v8.9h0h8.9v-8.9V190.8v-8.9
						H150.8L150.8,181.9z M903.9,181.9v8.9l0,0v329.8l0,0v8.9l0,0h8.9V181.9H903.9L903.9,181.9z M785.3,181.9v8.9h0v260.3
						l-30.7-269.2h-8.9h0v8.9h0v329.8h0v8.9h0h8.9V261.3l30.6,268.2l9,0V181.9H785.3L785.3,181.9z M245.8,181.9v8.9h0v260.3
						l-30.7-269.2h-8.9v8.9l0,0v329.8l0,0v8.9l0,0h8.9V261.3l30.6,268.2l9,0V181.9H245.8L245.8,181.9z M853.6,181.9h-8.9l0,0v0h-20
						v8.9h20v329.8l0,0v8.9l0,0h8.9V190.8h20v-8.9L853.6,181.9L853.6,181.9z M350.5,181.8h-8.9v0.1h-31.1h-8.9h0v8.9h0v329.8h0v8.9
						h0h8.9h31.1h8.9h0v-8.9h0v-41.8h-8.9v41.8h-31.1V190.8h31.1v41.8h8.9v-41.8h0L350.5,181.8L350.5,181.8L350.5,181.8z
						 M613.4,181.8h-8.9v0.1h-31.1h-8.9h0v8.9h0v160.4v0.3h0l0,8.7h8.9h31.1l0,0v160.7h-31.1V450h-8.9v70.8h0v9h0v0.1h8.9v-0.1h31.1
						h8.9h0v-9h0V360.2h0l0,0v-8.9l0,0h-40V190.8h31.1v70.8h8.9v-70.8h0L613.4,181.8L613.4,181.8L613.4,181.8z M708,181.8h-8.9v0.1
						H668h-8.9h0v8.9h0v160.4h0v8.9h0v160.4h0v8.9h0h8.9h31.1h8.9h0v-8.9h0h-8.9H668V360.2h40v-8.9h-40V190.8h31.1h8.9h0L708,181.8
						L708,181.8L708,181.8z M1101.4,181.9L1101.4,181.9l0,8.9h0v287.9V494v26.6h0v8.9h0h-8.9h-31.1h-8.9h0v-8.9h0V190.8h0v-8.9h0
						h8.9h31.1v-0.1L1101.4,181.9L1101.4,181.9z M1092.4,478.8V190.8h-31.1v329.8h31.1V494V478.8z M438,181.9L438,181.9l0,8.9h0
						v287.9V494v26.6h0v8.9h0h-8.9H398h-8.9l0,0v-8.9l0,0V190.8l0,0v-8.9l0,0h8.9h31.1v-0.1L438,181.9L438,181.9z M429.1,478.8
						V190.8H398v329.8h31.1V494V478.8z M1196.7,261.6v-70.8h0v-8.9h0v-0.1h-8.9v0.1h-31.1h-8.9h0v8.9h0v160.4v0.3h0l0,8.7h8.9h31.1
						l0,0v160.7h-31.1V450h-8.9v70.8h0v9h0v0.1h8.9v-0.1h31.1h8.9h0v-9h0V360.2h0l0,0v-8.9l0,0h-40V190.8h31.1v70.8H1196.7z
						 M1006.6,198.6v157.1v157c0,0,0,0,0,0c-1.1,9.3-8.9,16.5-18.4,16.8c0,0,0,0,0,0l-18.6,0c0,0,0,0,0,0l-12,0v0v-8.9v0l0,0V211.2
						v-20.4l0,0v-8.9h8.9l21.6,0c0,0,0,0,0,0C997.7,182.1,1005.4,189.3,1006.6,198.6C1006.6,198.6,1006.6,198.6,1006.6,198.6z
						 M997.6,198.8c-1-4.5-5-7.9-9.7-8h-21.3v21.5v308.2h21.3c4.8-0.1,8.8-3.5,9.7-8v-12.2V208.7V198.8z"/>
				</g>
			</g>
		</g>
	</g>
</g>
</svg>
