<?xml version="1.0" encoding="UTF-8"?>
<svg width="60px" height="60px" viewBox="0 0 60 60" version="1.1" xmlns="http://www.w3.org/2000/svg" xmlns:xlink="http://www.w3.org/1999/xlink">
    <!-- Generator: Sketch 50.2 (55047) - http://www.bohemiancoding.com/sketch -->
    <title>Cart-icon-filled</title>
    <desc>Created with Sketch.</desc>
    <defs></defs>
    <g id="Symbols" stroke="none" stroke-width="1" fill="none" fill-rule="evenodd">
        <g id="Cart-/-BG-Copy" transform="translate(-354.000000, 0.000000)">
            <g id="Cart-icon-filled" transform="translate(354.000000, 0.000000)">
                <g id="Group-17">
                    <circle id="Oval" fill="#007A98" cx="30" cy="30" r="30"></circle>
                    <g id="ic_shopping_cart" transform="translate(16.981132, 16.981132)" fill="#FFFFFF">
                        <path d="M8.14413392,21.7358491 C6.64604908,21.7358491 5.43396226,22.9584906 5.43396226,24.4528302 C5.43396226,25.9471698 6.64604908,27.1698113 8.14413392,27.1698113 C9.64221875,27.1698113 10.8679245,25.9471698 10.8679245,24.4528302 C10.8679245,22.9584906 9.64221875,21.7358491 8.14413392,21.7358491 L8.14413392,21.7358491 Z M0,0 L0,2.71698113 L2.71698113,2.71698113 L7.60754717,13.0279245 L5.77358491,16.3562264 C5.55622642,16.7366038 5.43396226,17.1849057 5.43396226,17.6603774 C5.43396226,19.154717 6.65660377,20.3773585 8.1509434,20.3773585 L24.4528302,20.3773585 L24.4528302,17.6603774 L8.72150943,17.6603774 C8.53132075,17.6603774 8.38188679,17.5109434 8.38188679,17.3207547 L8.42264151,17.1577358 L9.64528302,14.9433962 L19.7660377,14.9433962 C20.7849057,14.9433962 21.6815094,14.3864151 22.1433962,13.5441509 L27.0067925,4.72754717 C27.1154717,4.53735849 27.1698113,4.30641509 27.1698113,4.0754717 C27.1698113,3.32830189 26.5584906,2.71698113 25.8113208,2.71698113 L5.71924528,2.71698113 L4.44226415,0 L6.63620102e-15,0 L0,0 Z M21.7290396,21.7358491 C20.2309547,21.7358491 19.0188679,22.9584906 19.0188679,24.4528302 C19.0188679,25.9471698 20.2309547,27.1698113 21.7290396,27.1698113 C23.2271244,27.1698113 24.4528302,25.9471698 24.4528302,24.4528302 C24.4528302,22.9584906 23.2271244,21.7358491 21.7290396,21.7358491 L21.7290396,21.7358491 Z" id="Shape"></path>
                    </g>
                </g>
            </g>
        </g>
    </g>
</svg>