<?xml version="1.0" encoding="UTF-8"?>
<svg width="16px" height="18px" viewBox="0 0 16 18" version="1.1" xmlns="http://www.w3.org/2000/svg" xmlns:xlink="http://www.w3.org/1999/xlink">
    <!-- Generator: Sketch 50.2 (55047) - http://www.bohemiancoding.com/sketch -->
    <title>Content/24dp/delete</title>
    <desc>Created with Sketch.</desc>
    <defs>
        <path d="M6,9.5 L6,19 C6,20.1 6.9,21 8,21 L16,21 C17.1,21 18,20.1 18,19 L18,9.5 L6,9.5 Z M16,6 L16,4 C16,3.4 15.6,3 15,3 L9,3 C8.4,3 8,3.4 8,4 L8,6 L4,6 L4,8 L20,8 L20,6 L16,6 Z M14,6 L10,6 L10,5 L14,5 L14,6 Z" id="path-1"></path>
    </defs>
    <g id="Symbols" stroke="none" stroke-width="1" fill="none" fill-rule="evenodd">
        <g id="Checkout-/-Item" transform="translate(-570.000000, -34.000000)">
            <g id="Group" transform="translate(140.000000, 0.000000)">
                <g id="Content/24dp/delete" transform="translate(426.000000, 31.000000)">
                    <mask id="mask-2" fill="white">
                        <use xlink:href="#path-1"></use>
                    </mask>
                    <use id="Mask" fill="#444444" fill-rule="nonzero" xlink:href="#path-1"></use>
                    <g id="button/button-active" mask="url(#mask-2)" fill="#007A98" fill-rule="evenodd">
                        <rect id="ED5562" x="0" y="0" width="24" height="24"></rect>
                    </g>
                </g>
            </g>
        </g>
    </g>
</svg>